<svg xmlns="http://www.w3.org/2000/svg" width="188" height="46.12" viewBox="0 0 188 46.12"><defs><style>.a{fill:#d22630;}.b,.c{fill:#fff;}.c{font-size:25px;font-family:Inter-SemiBold, Inter;font-weight:600;isolation:isolate;}</style></defs><g transform="translate(0 0)"><path class="a" d="M562.754,439.259S581.2,430.035,581.2,416.2V400.062l-18.449-6.923L544.3,400.062V416.2C544.3,430.037,562.754,439.259,562.754,439.259Z" transform="translate(-544.305 -393.139)"/><g transform="translate(12.072 9.592)"><path class="b" d="M568.587,409.644H564.1v-3.21a1.119,1.119,0,0,0-.233-.83,1.278,1.278,0,0,0-.852-.213H561.2a1.277,1.277,0,0,0-.852.213,1.12,1.12,0,0,0-.233.83v15.85a1.123,1.123,0,0,0,.233.83,1.271,1.271,0,0,0,.852.213h1.817a1.279,1.279,0,0,0,.852-.213,1.128,1.128,0,0,0,.233-.83v-5.413h-1.933v-3.131h6.414v9.006q0,3.826-4.214,3.826h-4.521q-4.215,0-4.214-3.826V405.97q0-3.834,4.214-3.826h4.523q4.213,0,4.214,3.826Z" transform="translate(-555.639 -402.144)"/></g><g transform="translate(45 7)"><text class="c" transform="translate(0 24)"><tspan x="0" y="0">Griffin Bank</tspan></text></g></g></svg>