<?xml version="1.0" encoding="UTF-8" standalone="no"?><svg xmlns="http://www.w3.org/2000/svg" xmlns:xlink="http://www.w3.org/1999/xlink" contentScriptType="application/ecmascript" contentStyleType="text/css" height="425px" preserveAspectRatio="none" style="width:395px;height:425px;" version="1.1" viewBox="0 0 395 425" width="395px" zoomAndPan="magnify"><defs><filter height="300%" id="f1rlpzje4g1d67" width="300%" x="-1" y="-1"><feGaussianBlur result="blurOut" stdDeviation="2.0"/><feColorMatrix in="blurOut" result="blurOut2" type="matrix" values="0 0 0 0 0 0 0 0 0 0 0 0 0 0 0 0 0 0 .4 0"/><feOffset dx="4.0" dy="4.0" in="blurOut2" result="blurOut3"/><feBlend in="SourceGraphic" in2="blurOut3" mode="normal"/></filter></defs><g><line style="stroke:#A80036;stroke-width:1.0;stroke-dasharray:5.0,5.0;" x1="81" x2="81" y1="88.2969" y2="341.3594"/><line style="stroke:#A80036;stroke-width:1.0;stroke-dasharray:5.0,5.0;" x1="215" x2="215" y1="88.2969" y2="341.3594"/><line style="stroke:#A80036;stroke-width:1.0;stroke-dasharray:5.0,5.0;" x1="360.5" x2="360.5" y1="88.2969" y2="341.3594"/><text fill="#000000" font-family="sans-serif" font-size="14" lengthAdjust="spacingAndGlyphs" textLength="147" x="5" y="84.9951">Fintech App User (Bob)</text><ellipse cx="81.5" cy="15" fill="#FEFECE" filter="url(#f1rlpzje4g1d67)" rx="8" ry="8" style="stroke:#A80036;stroke-width:2.0;"/><path d="M81.5,23 L81.5,50 M68.5,31 L94.5,31 M81.5,50 L68.5,65 M81.5,50 L94.5,65 " fill="none" filter="url(#f1rlpzje4g1d67)" style="stroke:#A80036;stroke-width:2.0;"/><text fill="#000000" font-family="sans-serif" font-size="14" lengthAdjust="spacingAndGlyphs" textLength="147" x="5" y="353.3545">Fintech App User (Bob)</text><ellipse cx="81.5" cy="366.6563" fill="#FEFECE" filter="url(#f1rlpzje4g1d67)" rx="8" ry="8" style="stroke:#A80036;stroke-width:2.0;"/><path d="M81.5,374.6563 L81.5,401.6563 M68.5,382.6563 L94.5,382.6563 M81.5,401.6563 L68.5,416.6563 M81.5,401.6563 L94.5,416.6563 " fill="none" filter="url(#f1rlpzje4g1d67)" style="stroke:#A80036;stroke-width:2.0;"/><rect fill="#FEFECE" filter="url(#f1rlpzje4g1d67)" height="30.2969" style="stroke:#A80036;stroke-width:1.5;" width="90" x="168" y="53"/><text fill="#000000" font-family="sans-serif" font-size="14" lengthAdjust="spacingAndGlyphs" textLength="76" x="175" y="72.9951">Fintech App</text><rect fill="#FEFECE" filter="url(#f1rlpzje4g1d67)" height="30.2969" style="stroke:#A80036;stroke-width:1.5;" width="90" x="168" y="340.3594"/><text fill="#000000" font-family="sans-serif" font-size="14" lengthAdjust="spacingAndGlyphs" textLength="76" x="175" y="360.3545">Fintech App</text><rect fill="#FEFECE" filter="url(#f1rlpzje4g1d67)" height="30.2969" style="stroke:#A80036;stroke-width:1.5;" width="45" x="336.5" y="53"/><text fill="#000000" font-family="sans-serif" font-size="14" lengthAdjust="spacingAndGlyphs" textLength="31" x="343.5" y="72.9951">Bank</text><rect fill="#FEFECE" filter="url(#f1rlpzje4g1d67)" height="30.2969" style="stroke:#A80036;stroke-width:1.5;" width="45" x="336.5" y="340.3594"/><text fill="#000000" font-family="sans-serif" font-size="14" lengthAdjust="spacingAndGlyphs" textLength="31" x="343.5" y="360.3545">Bank</text><polygon fill="#A80036" points="203,115.4297,213,119.4297,203,123.4297,207,119.4297" style="stroke:#A80036;stroke-width:1.0;"/><line style="stroke:#A80036;stroke-width:1.0;" x1="81.5" x2="209" y1="119.4297" y2="119.4297"/><text fill="#000000" font-family="sans-serif" font-size="13" lengthAdjust="spacingAndGlyphs" textLength="21" x="88.5" y="114.3638">use</text><polygon fill="#A80036" points="349,144.5625,359,148.5625,349,152.5625,353,148.5625" style="stroke:#A80036;stroke-width:1.0;"/><line style="stroke:#A80036;stroke-width:1.0;" x1="215" x2="355" y1="148.5625" y2="148.5625"/><text fill="#000000" font-family="sans-serif" font-size="13" lengthAdjust="spacingAndGlyphs" textLength="97" x="222" y="143.4966">get user consent</text><polygon fill="#A80036" points="226,173.6953,216,177.6953,226,181.6953,222,177.6953" style="stroke:#A80036;stroke-width:1.0;"/><line style="stroke:#A80036;stroke-width:1.0;stroke-dasharray:2.0,2.0;" x1="220" x2="360" y1="177.6953" y2="177.6953"/><text fill="#000000" font-family="sans-serif" font-size="13" lengthAdjust="spacingAndGlyphs" textLength="62" x="232" y="172.6294">user token</text><polygon fill="#A80036" points="349,202.8281,359,206.8281,349,210.8281,353,206.8281" style="stroke:#A80036;stroke-width:1.0;"/><line style="stroke:#A80036;stroke-width:1.0;" x1="215" x2="355" y1="206.8281" y2="206.8281"/><text fill="#000000" font-family="sans-serif" font-size="13" lengthAdjust="spacingAndGlyphs" textLength="103" x="222" y="201.7622">get user accounts</text><polygon fill="#A80036" points="226,231.9609,216,235.9609,226,239.9609,222,235.9609" style="stroke:#A80036;stroke-width:1.0;"/><line style="stroke:#A80036;stroke-width:1.0;stroke-dasharray:2.0,2.0;" x1="220" x2="360" y1="235.9609" y2="235.9609"/><text fill="#000000" font-family="sans-serif" font-size="13" lengthAdjust="spacingAndGlyphs" textLength="53" x="232" y="230.895">accounts</text><polygon fill="#A80036" points="349,261.0938,359,265.0938,349,269.0938,353,265.0938" style="stroke:#A80036;stroke-width:1.0;"/><line style="stroke:#A80036;stroke-width:1.0;" x1="215" x2="355" y1="265.0938" y2="265.0938"/><text fill="#000000" font-family="sans-serif" font-size="13" lengthAdjust="spacingAndGlyphs" textLength="122" x="222" y="260.0278">get user transactions</text><polygon fill="#A80036" points="226,290.2266,216,294.2266,226,298.2266,222,294.2266" style="stroke:#A80036;stroke-width:1.0;"/><line style="stroke:#A80036;stroke-width:1.0;stroke-dasharray:2.0,2.0;" x1="220" x2="360" y1="294.2266" y2="294.2266"/><text fill="#000000" font-family="sans-serif" font-size="13" lengthAdjust="spacingAndGlyphs" textLength="72" x="232" y="289.1606">transactions</text><polygon fill="#A80036" points="92.5,319.3594,82.5,323.3594,92.5,327.3594,88.5,323.3594" style="stroke:#A80036;stroke-width:1.0;"/><line style="stroke:#A80036;stroke-width:1.0;stroke-dasharray:2.0,2.0;" x1="86.5" x2="214" y1="323.3594" y2="323.3594"/><text fill="#000000" font-family="sans-serif" font-size="13" lengthAdjust="spacingAndGlyphs" textLength="101" x="98.5" y="318.2935">show transaction</text><!--MD5=[09387be2186735e7fef7a417de9efcda]
@startuml
actor "Fintech App User (Bob)" as User
participant "Fintech App" as App
participant Bank

User -> App  : use
App -> Bank  : get user consent 
Bank - -> App : user token
App -> Bank  : get user accounts
Bank - -> App : accounts
App -> Bank  : get user transactions 
Bank - -> App : transactions
App - -> User : show transaction
@enduml

PlantUML version 1.2020.23(Sun Dec 13 19:14:58 GMT 2020)
(GPL source distribution)
Java Runtime: OpenJDK Runtime Environment
JVM: OpenJDK 64-Bit Server VM
Default Encoding: UTF-8
Language: en
Country: US
--></g></svg>